<svg width="20" height="20" viewBox="0 0 20 20" fill="none" xmlns="http://www.w3.org/2000/svg">
<path d="M13.5724 7.8564C12.8435 6.64455 11.5156 5.83329 9.99935 5.83329C7.69934 5.83329 5.83268 7.69995 5.83268 9.99996C5.83268 12.3 7.69934 14.1666 9.99935 14.1666C11.5156 14.1666 12.8435 13.3554 13.5724 12.1435L12.1434 11.2868C11.7063 12.0138 10.9099 12.5 9.99935 12.5C8.6181 12.5 7.49935 11.3812 7.49935 9.99996C7.49935 8.61871 8.6181 7.49996 9.99935 7.49996C10.9102 7.49996 11.7069 7.98651 12.1439 8.71396L13.5724 7.8564ZM18.3327 9.99996C18.3327 5.39994 14.5993 1.66663 9.99935 1.66663C5.39933 1.66663 1.66602 5.39994 1.66602 9.99996C1.66602 14.6 5.39933 18.3333 9.99935 18.3333C14.5993 18.3333 18.3327 14.6 18.3327 9.99996ZM3.33268 9.99996C3.33268 6.31659 6.31598 3.33329 9.99935 3.33329C13.6827 3.33329 16.666 6.31659 16.666 9.99996C16.666 13.6833 13.6827 16.6666 9.99935 16.6666C6.31598 16.6666 3.33268 13.6833 3.33268 9.99996Z" fill="white" />
</svg>
