<svg width="24" height="24" viewBox="0 0 24 24" fill="none" xmlns="http://www.w3.org/2000/svg">
<rect x="0.5" y="0.5" width="23" height="23" rx="7.5" stroke="white" stroke-opacity="0.8"/>
<path d="M5.73404 11.9059C6.85627 11.2878 8.10899 10.7718 9.27947 10.2533C11.2932 9.40393 13.3148 8.56929 15.3569 7.79225C15.7542 7.65985 16.4681 7.53037 16.5381 8.11917C16.4998 8.95261 16.3421 9.78117 16.234 10.6097C15.9594 12.4318 15.6422 14.2476 15.3328 16.0637C15.2262 16.6686 14.4684 16.9818 13.9835 16.5947C12.8182 15.8076 11.644 15.0281 10.4936 14.2228C10.1167 13.8398 10.4662 13.29 10.8027 13.0165C11.7625 12.0707 12.7803 11.2671 13.6899 10.2724C13.9353 9.67985 13.2103 10.1792 12.9712 10.3322C11.6573 11.2376 10.3755 12.1984 8.99023 12.9941C8.28263 13.3836 7.45791 13.0508 6.75063 12.8334C6.11646 12.5708 5.18718 12.3063 5.73398 11.906L5.73404 11.9059Z" fill="white" fill-opacity="0.8"/>
</svg>
